<?xml version="1.0" encoding="UTF-8" standalone="no"?>
<svg
   version="1.1"
   width="134.45068mm"
   height="93.59993mm"
   viewBox="0 0 134.45069 93.59993"
   id="svg432"
   sodipodi:docname="corne-cherry.svg"
   inkscape:version="1.4 (e7c3feb100, 2024-10-09)"
   xmlns:inkscape="http://www.inkscape.org/namespaces/inkscape"
   xmlns:sodipodi="http://sodipodi.sourceforge.net/DTD/sodipodi-0.dtd"
   xmlns="http://www.w3.org/2000/svg"
   xmlns:svg="http://www.w3.org/2000/svg">
  <defs
     id="defs432" />
  <sodipodi:namedview
     id="namedview432"
     pagecolor="#ffffff"
     bordercolor="#000000"
     borderopacity="0.25"
     inkscape:showpageshadow="2"
     inkscape:pageopacity="0.0"
     inkscape:pagecheckerboard="0"
     inkscape:deskcolor="#d1d1d1"
     inkscape:document-units="mm"
     showgrid="false"
     inkscape:zoom="0.64184559"
     inkscape:cx="-255.51317"
     inkscape:cy="-13.243061"
     inkscape:window-width="1910"
     inkscape:window-height="1011"
     inkscape:window-x="0"
     inkscape:window-y="0"
     inkscape:window-maximized="1"
     inkscape:current-layer="g432" />
  <title
     id="title1">SVG Image created as corne-cherry(1)-Edge_Cuts.svg date 2024/10/26 15:13:55 </title>
  <desc
     id="desc1">Image generated by PCBNEW </desc>
  <g
     style="fill:#000000;fill-opacity:1;stroke:#000000;stroke-linecap:round;stroke-linejoin:round;stroke-opacity:1"
     id="g1"
     transform="translate(-6.2108234,-6.9942089)" />
  <g
     style="fill:none;stroke:#d0d2cd;stroke-width:0.1;stroke-linecap:round;stroke-linejoin:round;stroke-opacity:1"
     id="g432"
     transform="translate(-6.2108234,-6.9942089)">
    <path
       d="M 63.426,7.7851 C 63.4115,7.8774 63.4115,7.9652 63.4115,8.05"
       id="path217" />
    <path
       d="M 63.5098,7.5269 C 63.4615,7.6199 63.4381,7.7081 63.426,7.7851"
       id="path219" />
    <path
       d="M 63.4115,9.4313 V 8.05"
       id="path221" />
    <path
       d="m 18.741,100.5145 c 0.0903,-0.0242 0.1705,-0.0597 0.2481,-0.094"
       id="path223" />
    <path
       d="m 102.5115,14.1937 h 37.1"
       id="path225" />
    <path
       d="m 102.0346,9.5296 c -0.093,-0.0484 -0.1812,-0.0718 -0.2582,-0.0839"
       id="path227" />
    <path
       d="M 82.7264,7.0645 C 82.6341,7.05 82.5463,7.05 82.4615,7.05"
       id="path231" />
    <path
       d="m 26.3115,11.8125 c -0.1215,0 -0.2513,0 -0.3906,0.0436"
       id="path233" />
    <path
       d="m 26.3115,11.8125 h 18.05"
       id="path234" />
    <path
       d="M 102.4679,10.0407 C 102.4347,9.9346 102.3815,9.8386 102.3075,9.7503"
       id="path235" />
    <path
       d="M 6.5805,14.3977 C 6.4993,14.4658 6.4186,14.5574 6.3598,14.6706"
       id="path236" />
    <path
       d="M 83.4615,8.05 V 9.4313"
       id="path237" />
    <path
       d="m 83.4615,8.05 c 0,-0.1215 0,-0.2513 -0.0436,-0.3906"
       id="path238" />
    <path
       d="M 44.3615,11.8125 V 10.4313"
       id="path241" />
    <path
       d="M 63.7305,7.254 C 63.6493,7.322 63.5686,7.4137 63.5098,7.5269"
       id="path243" />
    <path
       d="m 140.597,71.6087 c 0.0145,-0.0924 0.0145,-0.1801 0.0145,-0.2649"
       id="path244" />
    <path
       d="m 102.5115,10.4313 v 3.7624"
       id="path248" />
    <path
       d="m 140.5679,14.8032 c -0.0332,-0.1061 -0.0864,-0.2021 -0.1604,-0.2904"
       id="path249" />
    <path
       d="M 73.2336,89.0364 35.879,92.9428"
       id="path250" />
    <path
       d="M 83.2517,72.3438 73.9978,88.538"
       id="path253" />
    <path
       d="M 64.0209,7.0936 C 63.9148,7.1268 63.8188,7.18 63.7305,7.254"
       id="path256" />
    <path
       d="M 6.2615,24.3625 V 15.1937"
       id="path257" />
    <path
       d="m 17.8679,100.2504 c 0.0733,0.0836 0.1608,0.1498 0.2642,0.2006"
       id="path260" />
    <path
       d="M 63.4115,9.4313 H 45.373322 c -0.133322,0 -0.263122,0 -0.402422,0.0436"
       id="path264"
       sodipodi:nodetypes="ccc" />
    <path
       d="m 25.9209,11.8561 c -0.1061,0.0332 -0.2021,0.0864 -0.2904,0.1604"
       id="path265" />
    <path
       d="M 82.9846,7.1483 C 82.8916,7.1 82.8034,7.0766 82.7264,7.0645"
       id="path268" />
    <path
       d="m 44.376,10.1663 c -0.0145,0.0924 -0.0145,0.1801 -0.0145,0.265"
       id="path271" />
    <path
       d="m 17.6699,99.9109 c 0.0491,0.1111 0.1017,0.2298 0.198,0.3395"
       id="path272" />
    <path
       d="M 25.3115,14.1937 H 7.2747855 C 7.14,14.1937 7.0102,14.1937 6.8709,14.2374"
       id="path275"
       sodipodi:nodetypes="ccc" />
    <path
       d="m 18.1321,100.451 c 0.0951,0.0467 0.2115,0.0834 0.3389,0.0914"
       id="path276" />
    <path
       d="m 102.5115,10.4313 c 0,-0.1216 0,-0.2514 -0.0436,-0.3906"
       id="path277" />
    <path
       d="M 83.2575,7.369 C 83.1895,7.2878 83.0978,7.2071 82.9846,7.1483"
       id="path281" />
    <path
       d="m 73.8481,88.7613 c 0.0642,-0.0737 0.1084,-0.151 0.1497,-0.2233"
       id="path283" />
    <path
       d="m 139.6115,72.3438 c 0.1215,0 0.2513,0 0.3906,-0.0437"
       id="path284" />
    <path
       d="m 140.5132,71.8669 c 0.0483,-0.0931 0.0717,-0.1813 0.0838,-0.2582"
       id="path286" />
    <path
       d="M 101.7764,9.4457 C 101.6841,9.4313 101.5963,9.4313 101.5158,9.4313 H 83.4615"
       id="path287"
       sodipodi:nodetypes="ccc" />
    <path
       d="m 83.2517,72.3438 h 49.68328 6.67652"
       id="path288"
       sodipodi:nodetypes="ccc" />
    <path
       d="m 25.4098,12.2894 c -0.0483,0.093 -0.0717,0.1812 -0.0838,0.2582"
       id="path289" />
    <path
       d="M 44.6805,9.6352 C 44.5993,9.7033 44.5186,9.7949 44.4598,9.9081"
       id="path292" />
    <path
       d="M 140.6115,15.1937 V 71.3438"
       id="path295" />
    <path
       d="m 140.4075,14.5128 c -0.068,-0.0812 -0.1597,-0.162 -0.2729,-0.2208"
       id="path296" />
    <path
       d="M 25.3115,14.1937 V 12.8125"
       id="path298" />
    <path
       d="m 25.6305,12.0165 c -0.0812,0.068 -0.1619,0.1597 -0.2207,0.2729"
       id="path301" />
    <path
       d="m 35.879,92.9428 -16.8899,7.4777"
       id="path302" />
    <path
       d="m 139.8764,14.2082 c -0.0923,-0.0145 -0.1801,-0.0145 -0.2649,-0.0145"
       id="path303" />
    <path
       d="m 44.4598,9.9081 c -0.0483,0.0931 -0.0717,0.1813 -0.0838,0.2582"
       id="path305" />
    <path
       d="m 140.6115,15.1937 c 0,-0.1215 0,-0.2513 -0.0436,-0.3905"
       id="path306" />
    <path
       d="M 6.3598,14.6706 C 6.3115,14.7637 6.2881,14.8519 6.276,14.9288"
       id="path308" />
    <path
       d="m 73.2336,89.0364 c 0.1154,-0.012 0.2481,-0.0259 0.386,-0.096"
       id="path309" />
    <path
       d="M 6.8709,14.2374 C 6.7648,14.2706 6.6688,14.3238 6.5805,14.3977"
       id="path310" />
    <path
       d="m 73.6196,88.9404 c 0.0667,-0.0339 0.1484,-0.0871 0.2285,-0.1791"
       id="path311" />
    <path
       d="M 6.276,14.9288 C 6.2615,15.0212 6.2615,15.1089 6.2615,15.1937"
       id="path312" />
    <path
       d="m 140.2925,72.1398 c 0.0812,-0.0681 0.1619,-0.1597 0.2207,-0.2729"
       id="path317" />
    <path
       d="m 140.0021,72.3001 c 0.1061,-0.0332 0.2021,-0.0864 0.2904,-0.1603"
       id="path318" />
    <path
       d="m 25.326,12.5476 c -0.0145,0.0923 -0.0145,0.1801 -0.0145,0.2649"
       id="path319" />
    <path
       d="M 83.4179,7.6594 C 83.3847,7.5533 83.3315,7.4573 83.2575,7.369"
       id="path320" />
    <path
       d="m 102.3075,9.7503 c -0.068,-0.0812 -0.1597,-0.162 -0.2729,-0.2207"
       id="path326" />
    <path
       d="m 64.4115,7.05 h 18.05"
       id="path330" />
    <path
       d="m 64.4115,7.05 c -0.1215,0 -0.2513,0 -0.3906,0.0436"
       id="path332" />
    <path
       d="M 17.6699,99.9109 6.2608234,74.203121 6.2615,24.3625"
       id="path334"
       sodipodi:nodetypes="ccc" />
    <path
       d="m 140.1346,14.292 c -0.093,-0.0483 -0.1812,-0.0717 -0.2582,-0.0838"
       id="path335" />
    <path
       d="m 18.471,100.5424 c 0.1046,0.007 0.1947,-0.008 0.27,-0.0279"
       id="path336" />
    <path
       d="M 44.9709,9.4749 C 44.8648,9.5081 44.7688,9.5613 44.6805,9.6352"
       id="path339" />
  </g>
</svg>
