<?xml version="1.0" encoding="UTF-8" standalone="no"?>
<svg
   version="1.1"
   width="108.58mm"
   height="95.201187mm"
   viewBox="0 0 108.58 95.201185"
   id="svg72"
   sodipodi:docname="ferris-Edge_Cuts.svg"
   inkscape:version="1.3.2 (091e20ef0f, 2023-11-25)"
   xmlns:inkscape="http://www.inkscape.org/namespaces/inkscape"
   xmlns:sodipodi="http://sodipodi.sourceforge.net/DTD/sodipodi-0.dtd"
   xmlns="http://www.w3.org/2000/svg"
   xmlns:svg="http://www.w3.org/2000/svg">
  <defs
     id="defs72" />
  <sodipodi:namedview
     id="namedview72"
     pagecolor="#ffffff"
     bordercolor="#000000"
     borderopacity="0.25"
     inkscape:showpageshadow="2"
     inkscape:pageopacity="0.0"
     inkscape:pagecheckerboard="0"
     inkscape:deskcolor="#d1d1d1"
     inkscape:document-units="mm"
     showguides="true"
     inkscape:zoom="1.7387762"
     inkscape:cx="288.13368"
     inkscape:cy="119.62436"
     inkscape:window-width="1920"
     inkscape:window-height="1080"
     inkscape:window-x="0"
     inkscape:window-y="0"
     inkscape:window-maximized="1"
     inkscape:current-layer="g72">
    <sodipodi:guide
       position="170.24921,102.86342"
       orientation="0,-1"
       id="guide72"
       inkscape:locked="false" />
  </sodipodi:namedview>
  <title
     id="title1">SVG Image created as ferris-Edge_Cuts.svg date 2024/09/27 22:03:43 </title>
  <desc
     id="desc1">Image generated by PCBNEW </desc>
  <g
     style="fill:#000000;fill-opacity:1;stroke:#000000;stroke-linecap:round;stroke-linejoin:round;stroke-opacity:1"
     id="g1"
     transform="translate(-0.025,-0.0305)" />
  <g
     style="fill:none;stroke:#d0d2cd;stroke-width:0.05;stroke-linecap:round;stroke-linejoin:round;stroke-opacity:1"
     id="g36"
     transform="translate(-0.025,-0.0305)">
    <path
       d="M 108.58,44.175 V 71.15"
       id="path1" />
    <path
       d="M 102.8345,90.0199 A 38.8965,38.8965 0 0 0 108.58,71.15"
       id="path20" />
    <path
       d="m 102.8345,90.0199 -2.5325,4.2714"
       id="path21" />
    <path
       d="M 95.035,41.4891 95.055,10.065"
       id="path22" />
    <path
       d="M 95.035,41.4891 A 2.0012,2.0012 0 0 0 97.07,43.42"
       id="path23" />
    <path
       d="M 1.485,16.815 A 4.063,4.063 0 0 0 0.0579,18.8293"
       id="path24" />
    <path
       d="M 94.6202,9.3845 A 144.0266,144.0266 0 0 0 50.4352,0.0555"
       id="path25" />
    <path
       d="m 2.36,75.0666 -0.275,-7e-4"
       id="path26" />
    <path
       d="M 97.57,94.89 A 86.937,86.937 0 0 0 72.3897,83.9761"
       id="path27" />
    <path
       d="M 72.3902,83.9743 A 281.9336,281.9336 0 0 0 2.36,75.0666"
       id="path28" />
    <path
       d="m 0.05,73.135 a 2.0012,2.0012 0 0 0 2.035,1.9309"
       id="path29" />
    <path
       d="m 97.57,94.89 a 1.9666,1.9666 0 0 0 2.732,-0.5987"
       id="path30" />
    <path
       d="M 95.055,10.065 A 0.75,0.75 0 0 0 94.6202,9.3845"
       id="path31" />
    <path
       d="m 108.58,44.175 a 0.75,0.75 0 0 0 -0.75,-0.75"
       id="path32" />
    <path
       d="m 97.07,43.42 10.76,0.005"
       id="path33" />
    <path
       d="M 0.0579,18.8293 0.05,73.135"
       id="path34" />
    <path
       d="M 50.4351,0.0576 46.46,0.06"
       id="path35" />
    <path
       d="M 46.46,0.06 A 68.73,68.73 0 0 0 1.4866,16.8169"
       id="path36" />
  </g>
  <g
     style="fill:none;stroke:#d0d2cd;stroke-width:0.05;stroke-linecap:round;stroke-linejoin:round;stroke-opacity:1"
     id="g72"
     transform="translate(-0.025,-0.0305)">
    <path
       d="M 108.58,44.175 V 71.15"
       id="path37" />
    <path
       d="M 102.8345,90.0199 A 38.8965,38.8965 0 0 0 108.58,71.15"
       id="path56" />
    <path
       d="m 102.8345,90.0199 -2.5325,4.2714"
       id="path57" />
    <path
       d="M 95.035,41.4891 95.055,10.065"
       id="path58" />
    <path
       d="M 95.035,41.4891 A 2.0012,2.0012 0 0 0 97.07,43.42"
       id="path59" />
    <path
       d="M 1.485,16.815 A 4.063,4.063 0 0 0 0.0579,18.8293"
       id="path60" />
    <path
       d="M 94.6202,9.3845 A 144.0266,144.0266 0 0 0 50.4352,0.0555"
       id="path61" />
    <path
       d="m 2.36,75.0666 -0.275,-7e-4"
       id="path62" />
    <path
       d="M 97.57,94.89 A 86.937,86.937 0 0 0 72.3897,83.9761"
       id="path63" />
    <path
       d="M 72.3902,83.9743 A 281.9336,281.9336 0 0 0 2.36,75.0666"
       id="path64" />
    <path
       d="m 0.05,73.135 a 2.0012,2.0012 0 0 0 2.035,1.9309"
       id="path65" />
    <path
       d="m 97.57,94.89 a 1.9666,1.9666 0 0 0 2.732,-0.5987"
       id="path66" />
    <path
       d="M 95.055,10.065 A 0.75,0.75 0 0 0 94.6202,9.3845"
       id="path67" />
    <path
       d="m 108.58,44.175 a 0.75,0.75 0 0 0 -0.75,-0.75"
       id="path68" />
    <path
       d="m 97.07,43.42 10.76,0.005"
       id="path69" />
    <path
       d="M 0.0579,18.8293 0.05,73.135"
       id="path70" />
    <path
       d="M 50.4351,0.0576 46.46,0.06"
       id="path71" />
    <path
       d="M 46.46,0.06 A 68.73,68.73 0 0 0 1.4866,16.8169"
       id="path72" />
  </g>
</svg>
