<?xml version="1.0" standalone="no"?>
 <!DOCTYPE svg PUBLIC "-//W3C//DTD SVG 1.1//EN" 
 "http://www.w3.org/Graphics/SVG/1.1/DTD/svg11.dtd"> 
<svg
  xmlns:svg="http://www.w3.org/2000/svg"
  xmlns="http://www.w3.org/2000/svg"
  xmlns:xlink="http://www.w3.org/1999/xlink"
  version="1.1"
  width="136.6520mm" height="96.4946mm" viewBox="0.0000 0.0000 136.6520 96.4946">
<title>SVG Image created as maizeless-Edge_Cuts.svg date 2024/09/21 11:56:50 </title>
  <desc>Image generated by PCBNEW </desc>
<g style="fill:#000000; fill-opacity:1.0000;stroke:#000000; stroke-opacity:1.0000;
stroke-linecap:round; stroke-linejoin:round;"
 transform="translate(0 0) scale(1 1)">
</g>
<g style="fill:none; 
stroke:#D0D2CD; stroke-width:0.1500; stroke-opacity:1; 
stroke-linecap:round; stroke-linejoin:round;">
<path d="M132.7720 12.9110
L112.4824 12.9210
" />
<path d="M35.3220 21.1268
L3.9784 21.0820
" />
<path d="M120.9200 92.7608
L133.2324 71.3523
" />
<path d="M111.2334 88.3262
L119.4407 93.0656
" />
<path d="M70.8226 80.3471
L81.6374 80.3586
" />
<path d="M112.0024 12.5610 A0.5000 0.5000 0.0 0 0 111.5125 12.1610" />
<path d="M112.0024 12.5610 A0.5000 0.5000 0.0 0 0 112.4824 12.9210" />
<path d="M111.5125 12.1610
L94.4452 12.1750
" />
<path d="M40.6691 9.1128 A0.5000 0.5000 0.0 0 0 40.1691 9.6128" />
<path d="M75.4620 3.1422
L58.6820 3.1556
" />
<path d="M75.9620 4.6586
L75.9620 3.6422
" />
<path d="M93.4452 9.6750
L80.9554 9.6586
" />
<path d="M93.9452 11.6750
L93.9452 10.1750
" />
<path d="M40.1691 9.6128
L40.1480 16.7640
" />
<path d="M52.8480 9.1137
L40.6691 9.1128
" />
<path d="M58.6820 3.1556 A0.5000 0.5000 0.0 0 0 58.1820 3.6556" />
<path d="M75.9620 3.6422 A0.5000 0.5000 0.0 0 0 75.4620 3.1422" />
<path d="M93.9452 10.1750 A0.5000 0.5000 0.0 0 0 93.4452 9.6750" />
<path d="M93.9452 11.6750 A0.5000 0.5000 0.0 0 0 94.4452 12.1750" />
<path d="M133.2720 13.4110 A0.5000 0.5000 0.0 0 0 132.7720 12.9110" />
<path d="M111.2334 88.3262 A50.0003 50.0003 0.0 0 0 99.3857 83.3872" />
<path d="M119.4407 93.0656 A1.6659 1.6659 0.0 0 0 120.9200 92.7608" />
<path d="M3.5720 52.8828
L3.5720 69.8500
" />
</g>
<g style="fill:none; 
stroke:#D0D2CD; stroke-width:0.1000; stroke-opacity:1; 
stroke-linecap:round; stroke-linejoin:round;">
<path d="M53.1536 9.1155
L52.8480 9.1137
" />
</g>
<g style="fill:none; 
stroke:#D0D2CD; stroke-width:0.1500; stroke-opacity:1; 
stroke-linecap:round; stroke-linejoin:round;">
<path d="M3.5212 21.5392
L3.5720 35.8140
" />
<path d="M133.2720 13.4110
L133.3656 70.8521
" />
<path d="M75.9620 4.6586 A5.0000 5.0000 0.0 0 0 80.9554 9.6586" />
<path d="M70.2782 80.1853 A1.0000 1.0000 0.0 0 0 70.8226 80.3471" />
</g>
<g style="fill:none; 
stroke:#D0D2CD; stroke-width:0.1000; stroke-opacity:1; 
stroke-linecap:round; stroke-linejoin:round;">
<path d="M44.9253 72.1035
L39.2844 71.8820
" />
<path d="M70.2357 80.1576 A50.0001 50.0001 0.0 0 0 44.9253 72.1035" />
<path d="M36.1852 21.1188 A4.0000 4.0000 0.0 0 0 40.1480 17.1190" />
<path d="M70.2782 80.1853
L70.2357 80.1576
" />
</g>
<g style="fill:none; 
stroke:#D0D2CD; stroke-width:0.1500; stroke-opacity:1; 
stroke-linecap:round; stroke-linejoin:round;">
<path d="M3.5720 71.2216
L3.5720 69.8500
" />
</g>
<g style="fill:none; 
stroke:#D0D2CD; stroke-width:0.1000; stroke-opacity:1; 
stroke-linecap:round; stroke-linejoin:round;">
<path d="M40.1480 16.7640
L40.1480 17.1190
" />
</g>
<g style="fill:none; 
stroke:#D0D2CD; stroke-width:0.1500; stroke-opacity:1; 
stroke-linecap:round; stroke-linejoin:round;">
<path d="M133.2324 71.3523 A1.0001 1.0001 0.0 0 0 133.3656 70.8521" />
</g>
<g style="fill:none; 
stroke:#D0D2CD; stroke-width:0.1000; stroke-opacity:1; 
stroke-linecap:round; stroke-linejoin:round;">
<path d="M53.1536 9.1155 A5.0000 5.0000 0.0 0 0 58.1820 4.1155" />
</g>
<g style="fill:none; 
stroke:#D0D2CD; stroke-width:0.1500; stroke-opacity:1; 
stroke-linecap:round; stroke-linejoin:round;">
<path d="M3.5720 35.8140
L3.5720 52.8828
" />
<path d="M94.7404 82.1203 A50.0000 50.0000 0.0 0 0 81.6374 80.3586" />
</g>
<g style="fill:none; 
stroke:#D0D2CD; stroke-width:0.1000; stroke-opacity:1; 
stroke-linecap:round; stroke-linejoin:round;">
<path d="M58.1820 3.6556
L58.1820 4.1155
" />
<path d="M36.1852 21.1188
L35.3220 21.1268
" />
</g>
<g style="fill:none; 
stroke:#D0D2CD; stroke-width:0.1500; stroke-opacity:1; 
stroke-linecap:round; stroke-linejoin:round;">
<path d="M3.9784 21.0820 A0.4572 0.4572 0.0 0 0 3.5212 21.5392" />
<path d="M4.2324 71.8820
L39.2844 71.8820
" />
<path d="M94.7404 82.1203
L99.3857 83.3872
" />
<path d="M3.5720 71.2216 A0.6604 0.6604 0.0 0 0 4.2324 71.8820" />
</g>
<g style="fill:none; 
stroke:#D0D2CD; stroke-width:0.1500; stroke-opacity:1; 
stroke-linecap:round; stroke-linejoin:round;">
<path d="M132.7720 12.9110
L112.4824 12.9210
" />
<path d="M35.3220 21.1268
L3.9784 21.0820
" />
<path d="M120.9200 92.7608
L133.2324 71.3523
" />
<path d="M111.2334 88.3262
L119.4407 93.0656
" />
<path d="M70.8226 80.3471
L81.6374 80.3586
" />
<path d="M112.0024 12.5610 A0.5000 0.5000 0.0 0 0 111.5125 12.1610" />
<path d="M112.0024 12.5610 A0.5000 0.5000 0.0 0 0 112.4824 12.9210" />
<path d="M111.5125 12.1610
L94.4452 12.1750
" />
<path d="M40.6691 9.1128 A0.5000 0.5000 0.0 0 0 40.1691 9.6128" />
<path d="M75.4620 3.1422
L58.6820 3.1556
" />
<path d="M75.9620 4.6586
L75.9620 3.6422
" />
<path d="M93.4452 9.6750
L80.9554 9.6586
" />
<path d="M93.9452 11.6750
L93.9452 10.1750
" />
<path d="M40.1691 9.6128
L40.1480 16.7640
" />
<path d="M52.8480 9.1137
L40.6691 9.1128
" />
<path d="M58.6820 3.1556 A0.5000 0.5000 0.0 0 0 58.1820 3.6556" />
<path d="M75.9620 3.6422 A0.5000 0.5000 0.0 0 0 75.4620 3.1422" />
<path d="M93.9452 10.1750 A0.5000 0.5000 0.0 0 0 93.4452 9.6750" />
<path d="M93.9452 11.6750 A0.5000 0.5000 0.0 0 0 94.4452 12.1750" />
<path d="M133.2720 13.4110 A0.5000 0.5000 0.0 0 0 132.7720 12.9110" />
<path d="M111.2334 88.3262 A50.0003 50.0003 0.0 0 0 99.3857 83.3872" />
<path d="M119.4407 93.0656 A1.6659 1.6659 0.0 0 0 120.9200 92.7608" />
<path d="M3.5720 52.8828
L3.5720 69.8500
" />
</g>
<g style="fill:none; 
stroke:#D0D2CD; stroke-width:0.1000; stroke-opacity:1; 
stroke-linecap:round; stroke-linejoin:round;">
<path d="M53.1536 9.1155
L52.8480 9.1137
" />
</g>
<g style="fill:none; 
stroke:#D0D2CD; stroke-width:0.1500; stroke-opacity:1; 
stroke-linecap:round; stroke-linejoin:round;">
<path d="M3.5212 21.5392
L3.5720 35.8140
" />
<path d="M133.2720 13.4110
L133.3656 70.8521
" />
<path d="M75.9620 4.6586 A5.0000 5.0000 0.0 0 0 80.9554 9.6586" />
<path d="M70.2782 80.1853 A1.0000 1.0000 0.0 0 0 70.8226 80.3471" />
</g>
<g style="fill:none; 
stroke:#D0D2CD; stroke-width:0.1000; stroke-opacity:1; 
stroke-linecap:round; stroke-linejoin:round;">
<path d="M44.9253 72.1035
L39.2844 71.8820
" />
<path d="M70.2357 80.1576 A50.0001 50.0001 0.0 0 0 44.9253 72.1035" />
<path d="M36.1852 21.1188 A4.0000 4.0000 0.0 0 0 40.1480 17.1190" />
<path d="M70.2782 80.1853
L70.2357 80.1576
" />
</g>
<g style="fill:none; 
stroke:#D0D2CD; stroke-width:0.1500; stroke-opacity:1; 
stroke-linecap:round; stroke-linejoin:round;">
<path d="M3.5720 71.2216
L3.5720 69.8500
" />
</g>
<g style="fill:none; 
stroke:#D0D2CD; stroke-width:0.1000; stroke-opacity:1; 
stroke-linecap:round; stroke-linejoin:round;">
<path d="M40.1480 16.7640
L40.1480 17.1190
" />
</g>
<g style="fill:none; 
stroke:#D0D2CD; stroke-width:0.1500; stroke-opacity:1; 
stroke-linecap:round; stroke-linejoin:round;">
<path d="M133.2324 71.3523 A1.0001 1.0001 0.0 0 0 133.3656 70.8521" />
</g>
<g style="fill:none; 
stroke:#D0D2CD; stroke-width:0.1000; stroke-opacity:1; 
stroke-linecap:round; stroke-linejoin:round;">
<path d="M53.1536 9.1155 A5.0000 5.0000 0.0 0 0 58.1820 4.1155" />
</g>
<g style="fill:none; 
stroke:#D0D2CD; stroke-width:0.1500; stroke-opacity:1; 
stroke-linecap:round; stroke-linejoin:round;">
<path d="M3.5720 35.8140
L3.5720 52.8828
" />
<path d="M94.7404 82.1203 A50.0000 50.0000 0.0 0 0 81.6374 80.3586" />
</g>
<g style="fill:none; 
stroke:#D0D2CD; stroke-width:0.1000; stroke-opacity:1; 
stroke-linecap:round; stroke-linejoin:round;">
<path d="M58.1820 3.6556
L58.1820 4.1155
" />
<path d="M36.1852 21.1188
L35.3220 21.1268
" />
</g>
<g style="fill:none; 
stroke:#D0D2CD; stroke-width:0.1500; stroke-opacity:1; 
stroke-linecap:round; stroke-linejoin:round;">
<path d="M3.9784 21.0820 A0.4572 0.4572 0.0 0 0 3.5212 21.5392" />
<path d="M4.2324 71.8820
L39.2844 71.8820
" />
<path d="M94.7404 82.1203
L99.3857 83.3872
" />
<path d="M3.5720 71.2216 A0.6604 0.6604 0.0 0 0 4.2324 71.8820" />
</g> 
</svg>
