<?xml version="1.0" encoding="UTF-8" standalone="no"?>
<svg
   version="1.1"
   width="137.2963mm"
   height="109.3466mm"
   viewBox="0 0 137.2963 109.3466"
   id="svg95"
   sodipodi:docname="SofleKeyboard1.svg"
   inkscape:version="1.4 (e7c3feb100, 2024-10-09)"
   xmlns:inkscape="http://www.inkscape.org/namespaces/inkscape"
   xmlns:sodipodi="http://sodipodi.sourceforge.net/DTD/sodipodi-0.dtd"
   xmlns="http://www.w3.org/2000/svg"
   xmlns:svg="http://www.w3.org/2000/svg">
  <defs
     id="defs95" />
  <sodipodi:namedview
     id="namedview95"
     pagecolor="#ffffff"
     bordercolor="#000000"
     borderopacity="0.25"
     inkscape:showpageshadow="2"
     inkscape:pageopacity="0.0"
     inkscape:pagecheckerboard="0"
     inkscape:deskcolor="#d1d1d1"
     inkscape:document-units="mm"
     inkscape:zoom="0.99329372"
     inkscape:cx="228.02923"
     inkscape:cy="256.21827"
     inkscape:window-width="1920"
     inkscape:window-height="1080"
     inkscape:window-x="0"
     inkscape:window-y="0"
     inkscape:window-maximized="1"
     inkscape:current-layer="svg95" />
  <title
     id="title1">SVG Image created as SofleKeyboard1.svg date 2024/10/20 11:39:25 </title>
  <desc
     id="desc1">Image generated by PCBNEW </desc>
  <g
     style="fill:#000000;fill-opacity:1;stroke:#000000;stroke-linecap:round;stroke-linejoin:round;stroke-opacity:1"
     id="g1"
     transform="translate(-88.2239,-37.2754)" />
  <g
     style="fill:none;stroke:#d0d2cd;stroke-width:0.1;stroke-linecap:round;stroke-linejoin:round;stroke-opacity:1"
     id="g94"
     transform="translate(-88.2239,-37.2754)">
    <path
       d="m 225.0266,43.6956 0.1417,0.14"
       id="path1" />
    <path
       d="m 89.4259,37.3254 95.0849,10e-5"
       id="path2" />
    <path
       d="m 224.4106,121.6221 v 0"
       id="path3" />
    <path
       d="m 204.8842,123.5635 -0.0783,0.1129"
       id="path4" />
    <path
       d="m 204.8059,123.6764 -8.4854,13.9364"
       id="path5" />
    <path
       d="m 88.2841,115.5035 -0.0088,-0.321"
       id="path6" />
    <path
       d="m 196.3205,137.6128 -0.0858,0.1223"
       id="path7" />
    <path
       d="m 88.3104,115.8228 -0.0263,-0.3193"
       id="path8" />
    <path
       d="m 196.2347,137.7351 -0.0996,0.1089"
       id="path9" />
    <path
       d="m 205.6974,123.1271 -0.1361,0.0192"
       id="path10" />
    <path
       d="m 186.7165,37.4293 1.1692,0.1126"
       id="path11" />
    <path
       d="m 225.4702,120.4734 -0.0209,0.2198"
       id="path12" />
    <path
       d="m 88.9774,37.4159 0.2163,-0.0671"
       id="path13" />
    <path
       d="m 196.1351,137.844 -0.1118,0.0946"
       id="path14" />
    <path
       d="m 196.0233,137.9386 -0.1224,0.0794"
       id="path15" />
    <path
       d="m 88.4933,116.7634 -0.0781,-0.31"
       id="path16" />
    <path
       d="m 195.9009,138.018 -0.1315,0.0633"
       id="path17" />
    <path
       d="m 204.9744,123.4617 -0.0902,0.1018"
       id="path18" />
    <path
       d="m 187.8857,37.5419 1.0247,0.1379"
       id="path19" />
    <path
       d="m 105.0861,146.4263 -0.1679,-0.114"
       id="path20" />
    <path
       d="m 195.7694,138.0813 -0.1389,0.0463"
       id="path21" />
    <path
       d="m 138.6112,133.4781 -0.4571,0.1705"
       id="path22" />
    <path
       d="m 89.1937,37.3488 0.2322,-0.0234"
       id="path23" />
    <path
       d="m 138.1541,133.6486 -32.0789,12.8409"
       id="path24" />
    <path
       d="m 106.0752,146.4895 -0.2022,0.0603"
       id="path25" />
    <path
       d="m 195.6305,138.1276 -0.1448,0.0284"
       id="path26" />
    <path
       d="M 88.2753,115.1825 88.2739,38.4774"
       id="path27" />
    <path
       d="m 225.1683,43.8356 0.1156,0.1622"
       id="path28" />
    <path
       d="m 224.8619,43.5815 0.1647,0.1141"
       id="path29" />
    <path
       d="m 88.7818,37.5222 0.1956,-0.1063"
       id="path30" />
    <path
       d="m 205.3042,123.2308 -0.1186,0.0638"
       id="path31" />
    <path
       d="m 105.873,146.5498 -0.2047,0.0222"
       id="path32" />
    <path
       d="m 185.5444,37.3533 1.1721,0.076"
       id="path33" />
    <path
       d="m 105.6683,146.572 -0.2025,-0.0143"
       id="path34" />
    <path
       d="m 105.4658,146.5577 -0.1956,-0.0491"
       id="path35" />
    <path
       d="m 105.2702,146.5086 -0.1841,-0.0823"
       id="path36" />
    <path
       d="m 224.4105,121.6215 -18.7131,1.5056"
       id="path37" />
    <path
       d="m 139.0751,133.3299 -0.4639,0.1482"
       id="path38" />
    <path
       d="m 91.1749,122.6534 -0.0451,-0.0865"
       id="path39" />
    <path
       d="m 224.628,121.5835 -0.2174,0.0386"
       id="path40" />
    <path
       d="m 225.2929,121.088 -0.1279,0.1669"
       id="path41" />
    <path
       d="M 157.1747,132.9159 H 141.9561"
       id="path42" />
    <path
       d="m 205.4298,123.1811 -0.1256,0.0497"
       id="path43" />
    <path
       d="m 141.9561,132.9159 -0.4877,0.0116"
       id="path44" />
    <path
       d="m 225.3703,44.1787 0.0541,0.1959"
       id="path45" />
    <path
       d="m 88.2739,38.4774 0.0234,-0.2321"
       id="path46" />
    <path
       d="m 188.9104,37.6798 35.565,5.7653"
       id="path47" />
    <path
       d="m 140.9826,132.9623 -0.483,0.0578"
       id="path48" />
    <path
       d="M 88.2973,38.2453 88.3644,38.029"
       id="path49" />
    <path
       d="M 104.6494,145.9959 91.1749,122.6534"
       id="path50" />
    <path
       d="m 225.4244,44.3746 0.0188,0.2073"
       id="path51" />
    <path
       d="m 224.6771,43.4968 0.1848,0.0847"
       id="path52" />
    <path
       d="m 141.4684,132.9275 -0.4858,0.0348"
       id="path53" />
    <path
       d="m 225.165,121.2549 -0.156,0.1409"
       id="path54" />
    <path
       d="m 140.4996,133.0201 -0.4795,0.0806"
       id="path55" />
    <path
       d="m 139.545,133.204 -0.4699,0.1259"
       id="path56" />
    <path
       d="m 225.4493,120.6932 -0.0604,0.2062"
       id="path57" />
    <path
       d="m 157.6492,132.9239 -0.4745,-0.008"
       id="path58" />
    <path
       d="m 160.9212,133.4265 -0.4593,-0.1193"
       id="path59" />
    <path
       d="m 225.3889,120.8994 -0.096,0.1886"
       id="path60" />
    <path
       d="m 88.4706,37.8333 0.1407,-0.1705"
       id="path61" />
    <path
       d="m 88.7001,117.3691 -0.1118,-0.3002"
       id="path62" />
    <path
       d="m 224.4754,43.4451 0.2017,0.0517"
       id="path63" />
    <path
       d="m 225.2839,43.9978 0.0864,0.1809"
       id="path64" />
    <path
       d="m 160.4619,133.3072 -0.4627,-0.1035"
       id="path65" />
    <path
       d="m 159.9992,133.2037 -0.4657,-0.0877"
       id="path66" />
    <path
       d="m 224.8287,121.5067 -0.2007,0.0768"
       id="path67" />
    <path
       d="m 159.5335,133.116 -0.4682,-0.0719"
       id="path68" />
    <path
       d="m 88.5883,117.0689 -0.095,-0.3055"
       id="path69" />
    <path
       d="m 88.3542,116.1396 -0.0438,-0.3168"
       id="path70" />
    <path
       d="m 184.5108,37.3255 1.0336,0.0278"
       id="path71" />
    <path
       d="m 159.0653,133.0441 -0.4704,-0.056"
       id="path72" />
    <path
       d="m 225.4432,44.5819 0.027,75.8915"
       id="path73" />
    <path
       d="m 158.5949,132.9881 -0.4722,-0.0401"
       id="path74" />
    <path
       d="m 140.0201,133.1007 -0.4751,0.1033"
       id="path75" />
    <path
       d="m 225.009,121.3958 -0.1803,0.1109"
       id="path76" />
    <path
       d="m 205.0752,123.3718 -0.1008,0.0899"
       id="path77" />
    <path
       d="m 88.3644,38.029 0.1062,-0.1957"
       id="path78" />
    <path
       d="m 158.1227,132.948 -0.4735,-0.0241"
       id="path79" />
    <path
       d="m 104.9182,146.3123 -0.1471,-0.144"
       id="path80" />
    <path
       d="m 104.7711,146.1683 -0.1217,-0.1724"
       id="path81" />
    <path
       d="m 88.6113,37.6628 0.1705,-0.1406"
       id="path82" />
    <path
       d="m 205.5613,123.1463 -0.1315,0.0348"
       id="path83" />
    <path
       d="m 176.4124,137.7297 -15.4912,-4.3032"
       id="path84" />
    <path
       d="m 88.4152,116.4534 -0.061,-0.3138"
       id="path85" />
    <path
       d="m 195.4857,138.156 -0.1491,0.01"
       id="path86" />
    <path
       d="M 195.3366,138.166 H 179.6129"
       id="path87" />
    <path
       d="m 88.8285,117.6634 -0.1284,-0.2943"
       id="path88" />
    <path
       d="m 179.6129,138.166 -0.8099,-0.0275"
       id="path89" />
    <path
       d="m 178.803,138.1385 -0.8052,-0.0821"
       id="path90" />
    <path
       d="M 177.9978,138.0564 177.2,137.92"
       id="path91" />
    <path
       d="m 205.1856,123.2946 -0.1104,0.0772"
       id="path92" />
    <path
       d="m 91.1298,122.5669 -2.3013,-4.9035"
       id="path93" />
    <path
       d="m 177.2,137.92 -0.7876,-0.1903"
       id="path94" />
  </g>
</svg>
